<svg xmlns="http://www.w3.org/2000/svg" viewBox="0 0 1200 630"><rect x="253.81" y="523.33" width="61.03" height="61.03" rx="6.1" fill="#fff" stroke="#3178c6" stroke-miterlimit="10"/><path d="M290.16,551.88v6.51a13.53,13.53,0,0,0,3.77,1.22,25,25,0,0,0,4.56.41,21.28,21.28,0,0,0,4.43-.45,11.08,11.08,0,0,0,3.66-1.43,6.48,6.48,0,0,0,2.47-2.74,9.7,9.7,0,0,0,.91-4.17,8.54,8.54,0,0,0-.53-3.12,6.13,6.13,0,0,0-1.56-2.35,10.18,10.18,0,0,0-2.35-1.83,29.28,29.28,0,0,0-3.12-1.56c-.86-.35-1.56-.69-2.34-1a9.93,9.93,0,0,1-1.7-1,5,5,0,0,1-1.11-1.09,2.42,2.42,0,0,1-.39-1.31,2.23,2.23,0,0,1,.36-1.22,3.12,3.12,0,0,1,1-.91,5,5,0,0,1,1.56-.61,9.21,9.21,0,0,1,2.09-.21,11.9,11.9,0,0,1,1.69.12,14.3,14.3,0,0,1,3.64,1,8.17,8.17,0,0,1,1.57.9v-6.11a16.61,16.61,0,0,0-3.26-.84,25.83,25.83,0,0,0-4-.28,20,20,0,0,0-4.43.5,10.46,10.46,0,0,0-3.65,1.56,7.48,7.48,0,0,0-2.47,2.74,7.72,7.72,0,0,0-.91,3.91,7.33,7.33,0,0,0,1.69,5,13.56,13.56,0,0,0,5.07,3.51c.9.37,1.7.73,2.48,1.08a11.35,11.35,0,0,1,1.95,1.1,4.62,4.62,0,0,1,1.3,1.23A2.59,2.59,0,0,1,303,552a2.45,2.45,0,0,1-.31,1.18,2.64,2.64,0,0,1-.91.94,5.57,5.57,0,0,1-1.57.61,9.64,9.64,0,0,1-2.21.22,11.83,11.83,0,0,1-4.16-.76,12.31,12.31,0,0,1-3.91-2.21Zm-10.94-16h8.33v-5.34h-23.3v5.34h8.33v23.82h6.64Z" fill="#3178c6" stroke="#fff" stroke-miterlimit="10" stroke-width="0.75" fill-rule="evenodd"/><path d="M283.19,566.58c-.52,0-1.06,0-1.71.09V564.3a9.47,9.47,0,0,0,1.68.09h2.75a9.72,9.72,0,0,0,1.32-.06c0,.42,0,.67,0,.95a12,12,0,0,0,1.9,6.52,11.43,11.43,0,0,0,4.12,3.76,7.35,7.35,0,0,0-1.63,2.35,13.13,13.13,0,0,1-3-2.72,11.14,11.14,0,0,1-2.39-4.42,11.82,11.82,0,0,1-2.18,4.17,13.14,13.14,0,0,1-3.48,3,7.11,7.11,0,0,0-1.59-2.14,10.41,10.41,0,0,0,5.27-6.3,13,13,0,0,0,.5-2.91Z" fill="#3178c6" stroke="#fff" stroke-miterlimit="10" stroke-width="0.75"/><path d="M296.68,575.85a16.57,16.57,0,0,0,.09,2h-2.43a16.9,16.9,0,0,0,.09-2V566a16.29,16.29,0,0,0-.06-1.71c.5.05,1,.06,1.51.06H299a13,13,0,0,0,1.53-.06c0,.44-.05.77-.05,1.35v3.5q0,.65,0,1.29c-.45,0-.8,0-1.22,0h-2.58Zm0-9.12h1.73v-.6h-1.73Zm0,2h1.73v-.61h-1.73Zm10.65,7c0,1.74-.49,2.08-3,2.08h-1.22a7.19,7.19,0,0,0-.54-2.25,17.08,17.08,0,0,0,2,.1c.39,0,.48-.06.48-.32v-4.85h-2.71c-.44,0-.89,0-1.22,0,0-.27,0-.61,0-1.31v-3.5a11.23,11.23,0,0,0-.05-1.35,13,13,0,0,0,1.53.06h3.23c.5,0,1,0,1.5-.06a15.72,15.72,0,0,0-.06,1.68Zm-4.05-8.94h1.8v-.6h-1.8Zm0,2h1.8v-.61h-1.8Z" fill="#3178c6" stroke="#fff" stroke-miterlimit="10" stroke-width="0.75"/><path d="M376.59,548.52h-8.12v1.7q0,8.35-3.87,13.37-4.1,5.2-13.32,8.16L345,564.42q9.16-2.62,12.07-5.81,2.44-2.67,2.45-8.57v-1.52h-8.76v9.26h-9v-9.26h-8.06V540h8.06v-7.93h9V540h8.76v-8.39h9V540h8.12Z" fill="#3178c6" stroke="#fff" stroke-miterlimit="10" stroke-width="2"/><path d="M402.68,537.27a101,101,0,0,1-2.95,15.81A70.9,70.9,0,0,1,393,568.94l-9.31-4.29a50.27,50.27,0,0,0,6.63-13.73A75.43,75.43,0,0,0,393,535.8ZM428,564.33l-9.45,4.15a113.2,113.2,0,0,0-4.89-15.67,96,96,0,0,0-7.42-14.29l8.85-3.83A95.37,95.37,0,0,1,428,564.33Zm-4.79-27.89-4.52,1.94a27.33,27.33,0,0,0-4.15-6.13l4.52-1.94A29.11,29.11,0,0,1,423.24,536.44Zm6.08-2.26-4.52,1.94a27.33,27.33,0,0,0-4.15-6.13l4.52-1.94A29.37,29.37,0,0,1,429.32,534.18Z" fill="#3178c6" stroke="#fff" stroke-miterlimit="10" stroke-width="2"/><path d="M476.43,534.46a110.45,110.45,0,0,1-10.28,10.83v26.18H456.7v-19a94.66,94.66,0,0,1-11.8,6.23L438,551.33a75.07,75.07,0,0,0,16.78-8.53,70.54,70.54,0,0,0,13-12.17Z" fill="#3178c6" stroke="#fff" stroke-miterlimit="10" stroke-width="2"/><path d="M506.39,537.27a99.84,99.84,0,0,1-2.95,15.81,70.44,70.44,0,0,1-6.73,15.86l-9.31-4.29A50.6,50.6,0,0,0,494,550.92a76.15,76.15,0,0,0,2.63-15.12Zm25.36,27.06-9.45,4.15a114.58,114.58,0,0,0-4.89-15.67A97,97,0,0,0,510,538.52l8.85-3.83A95.37,95.37,0,0,1,531.75,564.33ZM527,536.44l-4.52,1.94a27,27,0,0,0-4.15-6.13l4.52-1.94A29.11,29.11,0,0,1,527,536.44Zm6.09-2.26-4.52,1.94a27.33,27.33,0,0,0-4.15-6.13l4.52-1.94A29.37,29.37,0,0,1,533,534.18Z" fill="#3178c6" stroke="#fff" stroke-miterlimit="10" stroke-width="2"/><path d="M556.64,541.6q0,10.78-1.06,15.68a36,36,0,0,1-6.78,14.19l-7.88-6.08a24.39,24.39,0,0,0,5.85-11.85,73.34,73.34,0,0,0,.83-13.13v-7.52h9Zm27.84,9.59A31.2,31.2,0,0,1,575.9,564q-6.25,5.34-16.41,6.82V532.71h9v25.63q5.54-3.6,8.16-13.74Z" fill="#3178c6" stroke="#fff" stroke-miterlimit="10" stroke-width="2"/><path d="M634.58,540.08H623.8v30.15H614V540.08h-10.6V531.6h31.2Z" fill="#3178c6" stroke="#fff" stroke-miterlimit="10" stroke-width="2"/><path d="M653.34,565.48l-11.15-22.72h9.73l5.85,13.18,5.72-13.18h9.63l-11.11,24a13.29,13.29,0,0,1-4.1,5.53q-2.22,1.47-6.55,1.47h-7.6l-1.34-7.23h7.33C651.5,566.5,652.7,566.16,653.34,565.48Z" fill="#3178c6" stroke="#fff" stroke-miterlimit="10" stroke-width="2"/><path d="M709.21,556q0,6.78-2.92,10.24a10.17,10.17,0,0,1-8.19,3.45,9.51,9.51,0,0,1-6.59-2.49v6.5h-9v-31h9v2.07a9.51,9.51,0,0,1,6.59-2.49,10.14,10.14,0,0,1,8.19,3.46Q709.22,549.25,709.21,556Zm-9,0q0-5.94-4.11-5.94a4,4,0,0,0-3.13,1.47,6.29,6.29,0,0,0-1.43,2.77v3.41a6.25,6.25,0,0,0,1.43,2.76,4,4,0,0,0,3.13,1.48Q700.18,562,700.18,556Z" fill="#3178c6" stroke="#fff" stroke-miterlimit="10" stroke-width="2"/><path d="M747.79,558.75H728.2q1,4.43,5.31,4.43c2.76,0,4.64-1.09,5.62-3.28l8.25,2.82q-3,8-13.78,8-6.36,0-10.14-3.55-4.07-3.74-4.06-10.65t4-10.65q3.74-3.5,10.1-3.5,14.28,0,14.28,16.23Zm-19.26-5.67h10.05c-.5-2.43-2.29-3.64-5.4-3.64Q729.82,549.44,728.53,553.08Z" fill="#3178c6" stroke="#fff" stroke-miterlimit="10" stroke-width="2"/><path d="M788.82,558.2q0,6.82-5.12,10.09a17.17,17.17,0,0,1-9.36,2.45q-6.5,0-10.09-1.85-5.07-2.62-7.42-9.59l9.22-2.81a9.07,9.07,0,0,0,3.78,5.07,9.47,9.47,0,0,0,4.51.88,4.77,4.77,0,0,0,3.16-1,3.14,3.14,0,0,0,1.18-2.58c0-1.14-.77-2.06-2.31-2.77a31.55,31.55,0,0,0-5.44-1.56q-6.72-1.57-9.22-3.28-4.1-2.81-4.1-8.75a10,10,0,0,1,4.15-8.28q4.15-3.15,10.74-3.16,12.07,0,16.27,9.45l-8.8,3.14a8,8,0,0,0-3.64-3.64,11.19,11.19,0,0,0-4.24-.65,6,6,0,0,0-3.74,1.06,2.66,2.66,0,0,0-1.1,2,2.47,2.47,0,0,0,1.61,2.17,30.83,30.83,0,0,0,4.06,1.24q6.68,1.67,7,1.75a15.07,15.07,0,0,1,6.22,3.46A9.52,9.52,0,0,1,788.82,558.2Z" fill="#3178c6" stroke="#fff" stroke-miterlimit="10" stroke-width="2"/><path d="M824.41,561.52q-1.85,9.16-12.68,9.17-6.27,0-9.87-3.55-3.78-3.69-3.78-10.65t3.78-10.65q3.6-3.5,9.87-3.5,11.06,0,12.63,9.17l-8.53,2.26q-.6-3.67-4.1-3.68-4.61,0-4.61,6.4t4.61,6.27q3.36,0,4.19-3.78Z" fill="#3178c6" stroke="#fff" stroke-miterlimit="10" stroke-width="2"/><path d="M855.47,543.12,852.89,552a6.79,6.79,0,0,0-4-1.2,4.89,4.89,0,0,0-3.34,1.54,6.48,6.48,0,0,0-2,3v14.89h-8.95V542.76h8.95v2.39a10.22,10.22,0,0,1,7.42-2.81A12,12,0,0,1,855.47,543.12Z" fill="#3178c6" stroke="#fff" stroke-miterlimit="10" stroke-width="2"/><path d="M875.62,570.23h-9.08V550.32H861.7v-7.56h13.92Zm.55-30.42h-10v-8.67h10Z" fill="#3178c6" stroke="#fff" stroke-miterlimit="10" stroke-width="2"/><path d="M914.48,556q0,6.78-2.93,10.24a10.15,10.15,0,0,1-8.18,3.45,9.55,9.55,0,0,1-6.6-2.49v6.5h-9v-31h9v2.07a9.55,9.55,0,0,1,6.6-2.49,10.12,10.12,0,0,1,8.18,3.46Q914.48,549.25,914.48,556Zm-9,0q0-5.94-4.1-5.94a4,4,0,0,0-3.14,1.47,6.39,6.39,0,0,0-1.43,2.77v3.41a6.36,6.36,0,0,0,1.43,2.76,4,4,0,0,0,3.14,1.48Q905.44,562,905.44,556Z" fill="#3178c6" stroke="#fff" stroke-miterlimit="10" stroke-width="2"/><path d="M944.44,550.32h-7.15v10.37c0,1.23.36,1.9,1.06,2a9.69,9.69,0,0,0,1.06,0h4.8v7.47H936q-4.38,0-6.06-1.61c-1.12-1.08-1.68-3-1.68-5.72V550.32h-5.35v-7.56h5.35v-7.19h9v7.19h7.15Z" fill="#3178c6" stroke="#fff" stroke-miterlimit="10" stroke-width="2"/><path d="M376.59,548.52h-8.12v1.7q0,8.35-3.87,13.37-4.1,5.2-13.32,8.16L345,564.42q9.16-2.62,12.07-5.81,2.44-2.67,2.45-8.57v-1.52h-8.76v9.26h-9v-9.26h-8.06V540h8.06v-7.93h9V540h8.76v-8.39h9V540h8.12Z" fill="none" stroke="#fff" stroke-linecap="round" stroke-linejoin="round" stroke-width="2"/><path d="M402.68,537.27a101,101,0,0,1-2.95,15.81A70.9,70.9,0,0,1,393,568.94l-9.31-4.29a50.27,50.27,0,0,0,6.63-13.73A75.43,75.43,0,0,0,393,535.8ZM428,564.33l-9.45,4.15a113.2,113.2,0,0,0-4.89-15.67,96,96,0,0,0-7.42-14.29l8.85-3.83A95.37,95.37,0,0,1,428,564.33Zm-4.79-27.89-4.52,1.94a27.33,27.33,0,0,0-4.15-6.13l4.52-1.94A29.11,29.11,0,0,1,423.24,536.44Zm6.08-2.26-4.52,1.94a27.33,27.33,0,0,0-4.15-6.13l4.52-1.94A29.37,29.37,0,0,1,429.32,534.18Z" fill="none" stroke="#fff" stroke-linecap="round" stroke-linejoin="round" stroke-width="2"/><path d="M476.43,534.46a110.45,110.45,0,0,1-10.28,10.83v26.18H456.7v-19a94.66,94.66,0,0,1-11.8,6.23L438,551.33a75.07,75.07,0,0,0,16.78-8.53,70.54,70.54,0,0,0,13-12.17Z" fill="none" stroke="#fff" stroke-linecap="round" stroke-linejoin="round" stroke-width="2"/><path d="M506.39,537.27a99.84,99.84,0,0,1-2.95,15.81,70.44,70.44,0,0,1-6.73,15.86l-9.31-4.29A50.6,50.6,0,0,0,494,550.92a76.15,76.15,0,0,0,2.63-15.12Zm25.36,27.06-9.45,4.15a114.58,114.58,0,0,0-4.89-15.67A97,97,0,0,0,510,538.52l8.85-3.83A95.37,95.37,0,0,1,531.75,564.33ZM527,536.44l-4.52,1.94a27,27,0,0,0-4.15-6.13l4.52-1.94A29.11,29.11,0,0,1,527,536.44Zm6.09-2.26-4.52,1.94a27.33,27.33,0,0,0-4.15-6.13l4.52-1.94A29.37,29.37,0,0,1,533,534.18Z" fill="none" stroke="#fff" stroke-linecap="round" stroke-linejoin="round" stroke-width="2"/><path d="M556.64,541.6q0,10.78-1.06,15.68a36,36,0,0,1-6.78,14.19l-7.88-6.08a24.39,24.39,0,0,0,5.85-11.85,73.34,73.34,0,0,0,.83-13.13v-7.52h9Zm27.84,9.59A31.2,31.2,0,0,1,575.9,564q-6.25,5.34-16.41,6.82V532.71h9v25.63q5.54-3.6,8.16-13.74Z" fill="none" stroke="#fff" stroke-linecap="round" stroke-linejoin="round" stroke-width="2"/><path d="M634.58,540.08H623.8v30.15H614V540.08h-10.6V531.6h31.2Z" fill="none" stroke="#fff" stroke-linecap="round" stroke-linejoin="round" stroke-width="2"/><path d="M653.34,565.48l-11.15-22.72h9.73l5.85,13.18,5.72-13.18h9.63l-11.11,24a13.29,13.29,0,0,1-4.1,5.53q-2.22,1.47-6.55,1.47h-7.6l-1.34-7.23h7.33C651.5,566.5,652.7,566.16,653.34,565.48Z" fill="none" stroke="#fff" stroke-linecap="round" stroke-linejoin="round" stroke-width="2"/><path d="M709.21,556q0,6.78-2.92,10.24a10.17,10.17,0,0,1-8.19,3.45,9.51,9.51,0,0,1-6.59-2.49v6.5h-9v-31h9v2.07a9.51,9.51,0,0,1,6.59-2.49,10.14,10.14,0,0,1,8.19,3.46Q709.22,549.25,709.21,556Zm-9,0q0-5.94-4.11-5.94a4,4,0,0,0-3.13,1.47,6.29,6.29,0,0,0-1.43,2.77v3.41a6.25,6.25,0,0,0,1.43,2.76,4,4,0,0,0,3.13,1.48Q700.18,562,700.18,556Z" fill="none" stroke="#fff" stroke-linecap="round" stroke-linejoin="round" stroke-width="2"/><path d="M747.79,558.75H728.2q1,4.43,5.31,4.43c2.76,0,4.64-1.09,5.62-3.28l8.25,2.82q-3,8-13.78,8-6.36,0-10.14-3.55-4.07-3.74-4.06-10.65t4-10.65q3.74-3.5,10.1-3.5,14.28,0,14.28,16.23Zm-19.26-5.67h10.05c-.5-2.43-2.29-3.64-5.4-3.64Q729.82,549.44,728.53,553.08Z" fill="none" stroke="#fff" stroke-linecap="round" stroke-linejoin="round" stroke-width="2"/><path d="M788.82,558.2q0,6.82-5.12,10.09a17.17,17.17,0,0,1-9.36,2.45q-6.5,0-10.09-1.85-5.07-2.62-7.42-9.59l9.22-2.81a9.07,9.07,0,0,0,3.78,5.07,9.47,9.47,0,0,0,4.51.88,4.77,4.77,0,0,0,3.16-1,3.14,3.14,0,0,0,1.18-2.58c0-1.14-.77-2.06-2.31-2.77a31.55,31.55,0,0,0-5.44-1.56q-6.72-1.57-9.22-3.28-4.1-2.81-4.1-8.75a10,10,0,0,1,4.15-8.28q4.15-3.15,10.74-3.16,12.07,0,16.27,9.45l-8.8,3.14a8,8,0,0,0-3.64-3.64,11.19,11.19,0,0,0-4.24-.65,6,6,0,0,0-3.74,1.06,2.66,2.66,0,0,0-1.1,2,2.47,2.47,0,0,0,1.61,2.17,30.83,30.83,0,0,0,4.06,1.24q6.68,1.67,7,1.75a15.07,15.07,0,0,1,6.22,3.46A9.52,9.52,0,0,1,788.82,558.2Z" fill="none" stroke="#fff" stroke-linecap="round" stroke-linejoin="round" stroke-width="2"/><path d="M824.41,561.52q-1.85,9.16-12.68,9.17-6.27,0-9.87-3.55-3.78-3.69-3.78-10.65t3.78-10.65q3.6-3.5,9.87-3.5,11.06,0,12.63,9.17l-8.53,2.26q-.6-3.67-4.1-3.68-4.61,0-4.61,6.4t4.61,6.27q3.36,0,4.19-3.78Z" fill="none" stroke="#fff" stroke-linecap="round" stroke-linejoin="round" stroke-width="2"/><path d="M855.47,543.12,852.89,552a6.79,6.79,0,0,0-4-1.2,4.89,4.89,0,0,0-3.34,1.54,6.48,6.48,0,0,0-2,3v14.89h-8.95V542.76h8.95v2.39a10.22,10.22,0,0,1,7.42-2.81A12,12,0,0,1,855.47,543.12Z" fill="none" stroke="#fff" stroke-linecap="round" stroke-linejoin="round" stroke-width="2"/><path d="M875.62,570.23h-9.08V550.32H861.7v-7.56h13.92Zm.55-30.42h-10v-8.67h10Z" fill="none" stroke="#fff" stroke-linecap="round" stroke-linejoin="round" stroke-width="2"/><path d="M914.48,556q0,6.78-2.93,10.24a10.15,10.15,0,0,1-8.18,3.45,9.55,9.55,0,0,1-6.6-2.49v6.5h-9v-31h9v2.07a9.55,9.55,0,0,1,6.6-2.49,10.12,10.12,0,0,1,8.18,3.46Q914.48,549.25,914.48,556Zm-9,0q0-5.94-4.1-5.94a4,4,0,0,0-3.14,1.47,6.39,6.39,0,0,0-1.43,2.77v3.41a6.36,6.36,0,0,0,1.43,2.76,4,4,0,0,0,3.14,1.48Q905.44,562,905.44,556Z" fill="none" stroke="#fff" stroke-linecap="round" stroke-linejoin="round" stroke-width="2"/><path d="M944.44,550.32h-7.15v10.37c0,1.23.36,1.9,1.06,2a9.69,9.69,0,0,0,1.06,0h4.8v7.47H936q-4.38,0-6.06-1.61c-1.12-1.08-1.68-3-1.68-5.72V550.32h-5.35v-7.56h5.35v-7.19h9v7.19h7.15Z" fill="none" stroke="#fff" stroke-linecap="round" stroke-linejoin="round" stroke-width="2"/><path d="M376.59,548.52h-8.12v1.7q0,8.35-3.87,13.37-4.1,5.2-13.32,8.16L345,564.42q9.16-2.62,12.07-5.81,2.44-2.67,2.45-8.57v-1.52h-8.76v9.26h-9v-9.26h-8.06V540h8.06v-7.93h9V540h8.76v-8.39h9V540h8.12Z" fill="#3178c6"/><path d="M402.68,537.27a101,101,0,0,1-2.95,15.81A70.9,70.9,0,0,1,393,568.94l-9.31-4.29a50.27,50.27,0,0,0,6.63-13.73A75.43,75.43,0,0,0,393,535.8ZM428,564.33l-9.45,4.15a113.2,113.2,0,0,0-4.89-15.67,96,96,0,0,0-7.42-14.29l8.85-3.83A95.37,95.37,0,0,1,428,564.33Zm-4.79-27.89-4.52,1.94a27.33,27.33,0,0,0-4.15-6.13l4.52-1.94A29.11,29.11,0,0,1,423.24,536.44Zm6.08-2.26-4.52,1.94a27.33,27.33,0,0,0-4.15-6.13l4.52-1.94A29.37,29.37,0,0,1,429.32,534.18Z" fill="#3178c6"/><path d="M476.43,534.46a110.45,110.45,0,0,1-10.28,10.83v26.18H456.7v-19a94.66,94.66,0,0,1-11.8,6.23L438,551.33a75.07,75.07,0,0,0,16.78-8.53,70.54,70.54,0,0,0,13-12.17Z" fill="#3178c6"/><path d="M506.39,537.27a99.84,99.84,0,0,1-2.95,15.81,70.44,70.44,0,0,1-6.73,15.86l-9.31-4.29A50.6,50.6,0,0,0,494,550.92a76.15,76.15,0,0,0,2.63-15.12Zm25.36,27.06-9.45,4.15a114.58,114.58,0,0,0-4.89-15.67A97,97,0,0,0,510,538.52l8.85-3.83A95.37,95.37,0,0,1,531.75,564.33ZM527,536.44l-4.52,1.94a27,27,0,0,0-4.15-6.13l4.52-1.94A29.11,29.11,0,0,1,527,536.44Zm6.09-2.26-4.52,1.94a27.33,27.33,0,0,0-4.15-6.13l4.52-1.94A29.37,29.37,0,0,1,533,534.18Z" fill="#3178c6"/><path d="M556.64,541.6q0,10.78-1.06,15.68a36,36,0,0,1-6.78,14.19l-7.88-6.08a24.39,24.39,0,0,0,5.85-11.85,73.34,73.34,0,0,0,.83-13.13v-7.52h9Zm27.84,9.59A31.2,31.2,0,0,1,575.9,564q-6.25,5.34-16.41,6.82V532.71h9v25.63q5.54-3.6,8.16-13.74Z" fill="#3178c6"/><path d="M634.58,540.08H623.8v30.15H614V540.08h-10.6V531.6h31.2Z" fill="#3178c6"/><path d="M653.34,565.48l-11.15-22.72h9.73l5.85,13.18,5.72-13.18h9.63l-11.11,24a13.29,13.29,0,0,1-4.1,5.53q-2.22,1.47-6.55,1.47h-7.6l-1.34-7.23h7.33C651.5,566.5,652.7,566.16,653.34,565.48Z" fill="#3178c6"/><path d="M709.21,556q0,6.78-2.92,10.24a10.17,10.17,0,0,1-8.19,3.45,9.51,9.51,0,0,1-6.59-2.49v6.5h-9v-31h9v2.07a9.51,9.51,0,0,1,6.59-2.49,10.14,10.14,0,0,1,8.19,3.46Q709.22,549.25,709.21,556Zm-9,0q0-5.94-4.11-5.94a4,4,0,0,0-3.13,1.47,6.29,6.29,0,0,0-1.43,2.77v3.41a6.25,6.25,0,0,0,1.43,2.76,4,4,0,0,0,3.13,1.48Q700.18,562,700.18,556Z" fill="#3178c6"/><path d="M747.79,558.75H728.2q1,4.43,5.31,4.43c2.76,0,4.64-1.09,5.62-3.28l8.25,2.82q-3,8-13.78,8-6.36,0-10.14-3.55-4.07-3.74-4.06-10.65t4-10.65q3.74-3.5,10.1-3.5,14.28,0,14.28,16.23Zm-19.26-5.67h10.05c-.5-2.43-2.29-3.64-5.4-3.64Q729.82,549.44,728.53,553.08Z" fill="#3178c6"/><path d="M788.82,558.2q0,6.82-5.12,10.09a17.17,17.17,0,0,1-9.36,2.45q-6.5,0-10.09-1.85-5.07-2.62-7.42-9.59l9.22-2.81a9.07,9.07,0,0,0,3.78,5.07,9.47,9.47,0,0,0,4.51.88,4.77,4.77,0,0,0,3.16-1,3.14,3.14,0,0,0,1.18-2.58c0-1.14-.77-2.06-2.31-2.77a31.55,31.55,0,0,0-5.44-1.56q-6.72-1.57-9.22-3.28-4.1-2.81-4.1-8.75a10,10,0,0,1,4.15-8.28q4.15-3.15,10.74-3.16,12.07,0,16.27,9.45l-8.8,3.14a8,8,0,0,0-3.64-3.64,11.19,11.19,0,0,0-4.24-.65,6,6,0,0,0-3.74,1.06,2.66,2.66,0,0,0-1.1,2,2.47,2.47,0,0,0,1.61,2.17,30.83,30.83,0,0,0,4.06,1.24q6.68,1.67,7,1.75a15.07,15.07,0,0,1,6.22,3.46A9.52,9.52,0,0,1,788.82,558.2Z" fill="#3178c6"/><path d="M824.41,561.52q-1.85,9.16-12.68,9.17-6.27,0-9.87-3.55-3.78-3.69-3.78-10.65t3.78-10.65q3.6-3.5,9.87-3.5,11.06,0,12.63,9.17l-8.53,2.26q-.6-3.67-4.1-3.68-4.61,0-4.61,6.4t4.61,6.27q3.36,0,4.19-3.78Z" fill="#3178c6"/><path d="M855.47,543.12,852.89,552a6.79,6.79,0,0,0-4-1.2,4.89,4.89,0,0,0-3.34,1.54,6.48,6.48,0,0,0-2,3v14.89h-8.95V542.76h8.95v2.39a10.22,10.22,0,0,1,7.42-2.81A12,12,0,0,1,855.47,543.12Z" fill="#3178c6"/><path d="M875.62,570.23h-9.08V550.32H861.7v-7.56h13.92Zm.55-30.42h-10v-8.67h10Z" fill="#3178c6"/><path d="M914.48,556q0,6.78-2.93,10.24a10.15,10.15,0,0,1-8.18,3.45,9.55,9.55,0,0,1-6.6-2.49v6.5h-9v-31h9v2.07a9.55,9.55,0,0,1,6.6-2.49,10.12,10.12,0,0,1,8.18,3.46Q914.48,549.25,914.48,556Zm-9,0q0-5.94-4.1-5.94a4,4,0,0,0-3.14,1.47,6.39,6.39,0,0,0-1.43,2.77v3.41a6.36,6.36,0,0,0,1.43,2.76,4,4,0,0,0,3.14,1.48Q905.44,562,905.44,556Z" fill="#3178c6"/><path d="M944.44,550.32h-7.15v10.37c0,1.23.36,1.9,1.06,2a9.69,9.69,0,0,0,1.06,0h4.8v7.47H936q-4.38,0-6.06-1.61c-1.12-1.08-1.68-3-1.68-5.72V550.32h-5.35v-7.56h5.35v-7.19h9v7.19h7.15Z" fill="#3178c6"/><path d="M376.59,548.52h-8.12v1.7q0,8.35-3.87,13.37-4.1,5.2-13.32,8.16L345,564.42q9.16-2.62,12.07-5.81,2.44-2.67,2.45-8.57v-1.52h-8.76v9.26h-9v-9.26h-8.06V540h8.06v-7.93h9V540h8.76v-8.39h9V540h8.12Z" fill="none" stroke="#fff" stroke-linecap="round" stroke-linejoin="round" stroke-width="0.75"/><path d="M402.68,537.27a101,101,0,0,1-2.95,15.81A70.9,70.9,0,0,1,393,568.94l-9.31-4.29a50.27,50.27,0,0,0,6.63-13.73A75.43,75.43,0,0,0,393,535.8ZM428,564.33l-9.45,4.15a113.2,113.2,0,0,0-4.89-15.67,96,96,0,0,0-7.42-14.29l8.85-3.83A95.37,95.37,0,0,1,428,564.33Zm-4.79-27.89-4.52,1.94a27.33,27.33,0,0,0-4.15-6.13l4.52-1.94A29.11,29.11,0,0,1,423.24,536.44Zm6.08-2.26-4.52,1.94a27.33,27.33,0,0,0-4.15-6.13l4.52-1.94A29.37,29.37,0,0,1,429.32,534.18Z" fill="none" stroke="#fff" stroke-linecap="round" stroke-linejoin="round" stroke-width="0.75"/><path d="M476.43,534.46a110.45,110.45,0,0,1-10.28,10.83v26.18H456.7v-19a94.66,94.66,0,0,1-11.8,6.23L438,551.33a75.07,75.07,0,0,0,16.78-8.53,70.54,70.54,0,0,0,13-12.17Z" fill="none" stroke="#fff" stroke-linecap="round" stroke-linejoin="round" stroke-width="0.75"/><path d="M506.39,537.27a99.84,99.84,0,0,1-2.95,15.81,70.44,70.44,0,0,1-6.73,15.86l-9.31-4.29A50.6,50.6,0,0,0,494,550.92a76.15,76.15,0,0,0,2.63-15.12Zm25.36,27.06-9.45,4.15a114.58,114.58,0,0,0-4.89-15.67A97,97,0,0,0,510,538.52l8.85-3.83A95.37,95.37,0,0,1,531.75,564.33ZM527,536.44l-4.52,1.94a27,27,0,0,0-4.15-6.13l4.52-1.94A29.11,29.11,0,0,1,527,536.44Zm6.09-2.26-4.52,1.94a27.33,27.33,0,0,0-4.15-6.13l4.52-1.94A29.37,29.37,0,0,1,533,534.18Z" fill="none" stroke="#fff" stroke-linecap="round" stroke-linejoin="round" stroke-width="0.75"/><path d="M556.64,541.6q0,10.78-1.06,15.68a36,36,0,0,1-6.78,14.19l-7.88-6.08a24.39,24.39,0,0,0,5.85-11.85,73.34,73.34,0,0,0,.83-13.13v-7.52h9Zm27.84,9.59A31.2,31.2,0,0,1,575.9,564q-6.25,5.34-16.41,6.82V532.71h9v25.63q5.54-3.6,8.16-13.74Z" fill="none" stroke="#fff" stroke-linecap="round" stroke-linejoin="round" stroke-width="0.75"/><path d="M634.58,540.08H623.8v30.15H614V540.08h-10.6V531.6h31.2Z" fill="none" stroke="#fff" stroke-linecap="round" stroke-linejoin="round" stroke-width="0.75"/><path d="M653.34,565.48l-11.15-22.72h9.73l5.85,13.18,5.72-13.18h9.63l-11.11,24a13.29,13.29,0,0,1-4.1,5.53q-2.22,1.47-6.55,1.47h-7.6l-1.34-7.23h7.33C651.5,566.5,652.7,566.16,653.34,565.48Z" fill="none" stroke="#fff" stroke-linecap="round" stroke-linejoin="round" stroke-width="0.75"/><path d="M709.21,556q0,6.78-2.92,10.24a10.17,10.17,0,0,1-8.19,3.45,9.51,9.51,0,0,1-6.59-2.49v6.5h-9v-31h9v2.07a9.51,9.51,0,0,1,6.59-2.49,10.14,10.14,0,0,1,8.19,3.46Q709.22,549.25,709.21,556Zm-9,0q0-5.94-4.11-5.94a4,4,0,0,0-3.13,1.47,6.29,6.29,0,0,0-1.43,2.77v3.41a6.25,6.25,0,0,0,1.43,2.76,4,4,0,0,0,3.13,1.48Q700.18,562,700.18,556Z" fill="none" stroke="#fff" stroke-linecap="round" stroke-linejoin="round" stroke-width="0.75"/><path d="M747.79,558.75H728.2q1,4.43,5.31,4.43c2.76,0,4.64-1.09,5.62-3.28l8.25,2.82q-3,8-13.78,8-6.36,0-10.14-3.55-4.07-3.74-4.06-10.65t4-10.65q3.74-3.5,10.1-3.5,14.28,0,14.28,16.23Zm-19.26-5.67h10.05c-.5-2.43-2.29-3.64-5.4-3.64Q729.82,549.44,728.53,553.08Z" fill="none" stroke="#fff" stroke-linecap="round" stroke-linejoin="round" stroke-width="0.75"/><path d="M788.82,558.2q0,6.82-5.12,10.09a17.17,17.17,0,0,1-9.36,2.45q-6.5,0-10.09-1.85-5.07-2.62-7.42-9.59l9.22-2.81a9.07,9.07,0,0,0,3.78,5.07,9.47,9.47,0,0,0,4.51.88,4.77,4.77,0,0,0,3.16-1,3.14,3.14,0,0,0,1.18-2.58c0-1.14-.77-2.06-2.31-2.77a31.55,31.55,0,0,0-5.44-1.56q-6.72-1.57-9.22-3.28-4.1-2.81-4.1-8.75a10,10,0,0,1,4.15-8.28q4.15-3.15,10.74-3.16,12.07,0,16.27,9.45l-8.8,3.14a8,8,0,0,0-3.64-3.64,11.19,11.19,0,0,0-4.24-.65,6,6,0,0,0-3.74,1.06,2.66,2.66,0,0,0-1.1,2,2.47,2.47,0,0,0,1.61,2.17,30.83,30.83,0,0,0,4.06,1.24q6.68,1.67,7,1.75a15.07,15.07,0,0,1,6.22,3.46A9.52,9.52,0,0,1,788.82,558.2Z" fill="none" stroke="#fff" stroke-linecap="round" stroke-linejoin="round" stroke-width="0.75"/><path d="M824.41,561.52q-1.85,9.16-12.68,9.17-6.27,0-9.87-3.55-3.78-3.69-3.78-10.65t3.78-10.65q3.6-3.5,9.87-3.5,11.06,0,12.63,9.17l-8.53,2.26q-.6-3.67-4.1-3.68-4.61,0-4.61,6.4t4.61,6.27q3.36,0,4.19-3.78Z" fill="none" stroke="#fff" stroke-linecap="round" stroke-linejoin="round" stroke-width="0.75"/><path d="M855.47,543.12,852.89,552a6.79,6.79,0,0,0-4-1.2,4.89,4.89,0,0,0-3.34,1.54,6.48,6.48,0,0,0-2,3v14.89h-8.95V542.76h8.95v2.39a10.22,10.22,0,0,1,7.42-2.81A12,12,0,0,1,855.47,543.12Z" fill="none" stroke="#fff" stroke-linecap="round" stroke-linejoin="round" stroke-width="0.75"/><path d="M875.62,570.23h-9.08V550.32H861.7v-7.56h13.92Zm.55-30.42h-10v-8.67h10Z" fill="none" stroke="#fff" stroke-linecap="round" stroke-linejoin="round" stroke-width="0.75"/><path d="M914.48,556q0,6.78-2.93,10.24a10.15,10.15,0,0,1-8.18,3.45,9.55,9.55,0,0,1-6.6-2.49v6.5h-9v-31h9v2.07a9.55,9.55,0,0,1,6.6-2.49,10.12,10.12,0,0,1,8.18,3.46Q914.48,549.25,914.48,556Zm-9,0q0-5.94-4.1-5.94a4,4,0,0,0-3.14,1.47,6.39,6.39,0,0,0-1.43,2.77v3.41a6.36,6.36,0,0,0,1.43,2.76,4,4,0,0,0,3.14,1.48Q905.44,562,905.44,556Z" fill="none" stroke="#fff" stroke-linecap="round" stroke-linejoin="round" stroke-width="0.75"/><path d="M944.44,550.32h-7.15v10.37c0,1.23.36,1.9,1.06,2a9.69,9.69,0,0,0,1.06,0h4.8v7.47H936q-4.38,0-6.06-1.61c-1.12-1.08-1.68-3-1.68-5.72V550.32h-5.35v-7.56h5.35v-7.19h9v7.19h7.15Z" fill="none" stroke="#fff" stroke-linecap="round" stroke-linejoin="round" stroke-width="0.75"/></svg>